<svg width="50" height="48" viewBox="0 0 50 48" fill="none" xmlns="http://www.w3.org/2000/svg">
<path d="M49.1604 21.3519L44.9364 17.5032V4.74116C44.9364 3.92915 44.2781 3.27075 43.466 3.27075H33.2986C32.4865 3.27075 31.8281 3.92905 31.8281 4.74116V5.55894L26.727 0.910791C25.7423 0.0134277 24.2574 0.0135254 23.2732 0.910693L0.839786 21.352C0.0511142 22.0708 -0.20953 23.1782 0.175821 24.1732C0.56127 25.1682 1.49975 25.8111 2.56684 25.8111H6.14974V46.2916C6.14974 47.1037 6.80804 47.7621 7.62015 47.7621H19.9163C20.7283 47.7621 21.3867 47.1038 21.3867 46.2916V33.8565H28.6134V46.2917C28.6134 47.1038 29.2717 47.7622 30.0838 47.7622H42.3795C43.1915 47.7622 43.8499 47.1039 43.8498 46.2917V25.8112H47.4335C48.5005 25.8112 49.4391 25.1682 49.8245 24.1733C50.2098 23.1782 49.9492 22.0708 49.1604 21.3519ZM42.3795 22.8704C41.5675 22.8704 40.9091 23.5287 40.9091 24.3408V44.8213H31.5543V32.3861C31.5543 31.5741 30.8959 30.9157 30.0839 30.9157H19.9163C19.1043 30.9157 18.4459 31.574 18.4459 32.3861V44.8213H9.09046V24.3408C9.09046 23.5288 8.43216 22.8704 7.62005 22.8704H3.53969L25.0002 3.31567L32.3084 9.97495C32.7389 10.3671 33.3603 10.4682 33.8928 10.2332C34.4254 9.9978 34.7691 9.47026 34.7691 8.88804V6.21157H41.9958V18.1526C41.9958 18.5664 42.17 18.9608 42.4759 19.2395L46.4606 22.8704H42.3795Z" fill="black" fill-opacity="0.9"/>
</svg>
