<svg width="10" height="50" viewBox="0 0 10 50" fill="none" xmlns="http://www.w3.org/2000/svg">
<path d="M9.99995 35.5078V5.20153C9.99995 2.4799 7.76959 0.265625 5.0282 0.265625C2.28671 0.265625 0.0563574 2.4799 0.0563574 5.20153V35.5077C0.0563574 36.2664 0.641901 36.8887 1.38867 36.9552L0.143758 40.3699C0.0128996 40.7289 0.0294049 41.1246 0.189853 41.4714L3.69686 49.0571C3.93563 49.5737 4.45574 49.9048 5.0282 49.9048C5.60066 49.9048 6.12077 49.5737 6.35954 49.0571L9.86645 41.4714C10.0269 41.1245 10.0434 40.7288 9.91255 40.3699L8.66763 36.9552C9.4144 36.8887 9.99995 36.2665 9.99995 35.5078ZM2.98603 34.0535V12.3755H7.07028V34.0534H2.98603V34.0535ZM5.0282 3.17418C6.15417 3.17418 7.07028 4.08368 7.07028 5.20153V9.46692H2.98603V5.20153C2.98603 4.08368 3.90213 3.17418 5.0282 3.17418ZM5.0282 44.9643L3.10282 40.7997L4.50194 36.9619H5.55437L6.95358 40.7997L5.0282 44.9643Z" fill="black" fill-opacity="0.7"/>
</svg>
