<svg width="53" height="50" viewBox="0 0 53 50" fill="none" xmlns="http://www.w3.org/2000/svg">
<path d="M50.2034 14.9531C51.8985 13.5154 53 11.2508 53 8.70004C53 4.36256 49.8297 0.833374 45.9333 0.833374C42.0369 0.833374 38.8667 4.36256 38.8667 8.70004C38.8667 11.0502 39.8021 13.1575 41.2746 14.6H36.5824L30.6579 8.00482C30.3125 7.62034 29.7542 7.62034 29.4088 8.00482L25.8755 11.9382C25.5301 12.3226 25.5301 12.9441 25.8755 13.3286L33.8255 22.1786C33.9907 22.3635 34.215 22.4667 34.45 22.4667H41.5167V29.35H37.1H26.3834L30.7683 22.0291L29.2984 20.9386L24.2607 29.35H22.0833V24.4334C22.0833 23.8896 21.6885 23.45 21.2 23.45H14.1333V19.5167C14.1333 17.4438 12.9709 15.6748 11.3367 14.9531C13.0318 13.5154 14.1333 11.2508 14.1333 8.70004C14.1333 4.36256 10.963 0.833374 7.06667 0.833374C3.17028 0.833374 0 4.36256 0 8.70004C0 11.2508 1.10152 13.5154 2.79663 14.9531C1.16247 15.6748 0 17.4438 0 19.5167V33.2834C0 35.9944 1.98132 38.2 4.41667 38.2V50H6.18333V38.2H12.3667V49.0167C12.3667 49.5605 12.7615 50 13.25 50H19.4333C19.9218 50 20.3167 49.5605 20.3167 49.0167V34.2667C20.3167 33.1605 19.9872 32.1388 19.4316 31.3167H20.3167H21.2H25.6167V48.0334H22.0833V50H30.9167V48.0334H27.3833V31.3167H33.5896C33.0287 32.1407 32.6833 33.1555 32.6833 34.2667V49.0167C32.6833 49.5605 33.0782 50 33.5667 50H39.75C40.2385 50 40.6333 49.5605 40.6333 49.0167V38.2H46.8167V50H48.5833V38.2C51.0187 38.2 53 35.9944 53 33.2834V19.5167C53 17.4438 51.8375 15.6748 50.2034 14.9531ZM1.76667 8.70004C1.76667 5.44619 4.14372 2.80004 7.06667 2.80004C9.98962 2.80004 12.3667 5.44619 12.3667 8.70004C12.3667 11.9539 9.98962 14.6 7.06667 14.6C4.14372 14.6 1.76667 11.9539 1.76667 8.70004ZM20.3167 29.35H8.83333V21.4834H7.06667V30.3334C7.06667 30.8772 7.46152 31.3167 7.95 31.3167H15.9C17.361 31.3167 18.55 32.6403 18.55 34.2667V48.0334H14.1333V37.2167C14.1333 36.6729 13.7385 36.2334 13.25 36.2334H4.41667C2.95563 36.2334 1.76667 34.9098 1.76667 33.2834V19.5167C1.76667 17.8903 2.95563 16.5667 4.41667 16.5667H9.71667C11.1777 16.5667 12.3667 17.8903 12.3667 19.5167V24.4334C12.3667 24.9772 12.7615 25.4167 13.25 25.4167H20.3167V29.35ZM40.6333 8.70004C40.6333 5.44619 43.0104 2.80004 45.9333 2.80004C48.8563 2.80004 51.2333 5.44619 51.2333 8.70004C51.2333 11.9539 48.8563 14.6 45.9333 14.6C43.0104 14.6 40.6333 11.9539 40.6333 8.70004ZM51.2333 33.2834C51.2333 34.9098 50.0444 36.2334 48.5833 36.2334H39.75C39.2615 36.2334 38.8667 36.6729 38.8667 37.2167V48.0334H34.45V34.2667C34.45 32.6403 35.639 31.3167 37.1 31.3167H42.4C42.8885 31.3167 43.2833 30.8772 43.2833 30.3334V21.4834C43.2833 20.9396 42.8885 20.5 42.4 20.5H34.8157L27.749 12.6334L30.0333 10.0905L35.5921 16.2786C35.7573 16.4635 35.9817 16.5667 36.2167 16.5667H48.5833C50.0444 16.5667 51.2333 17.8903 51.2333 19.5167V33.2834Z" fill="black"/>
</svg>
