<svg width="16" height="16" viewBox="0 0 16 16" fill="none" xmlns="http://www.w3.org/2000/svg">
<path d="M14.6667 10.9167C13.625 10.9167 12.625 10.75 11.6917 10.4417C11.4 10.35 11.075 10.4167 10.8417 10.6417L9.00833 12.475C6.65 11.275 4.71667 9.35 3.51667 6.98333L5.35 5.14167C5.58333 4.925 5.65 4.6 5.55833 4.30833C5.25 3.375 5.08333 2.375 5.08333 1.33333C5.08333 0.875 4.70833 0.5 4.25 0.5H1.33333C0.875 0.5 0.5 0.875 0.5 1.33333C0.5 9.15833 6.84167 15.5 14.6667 15.5C15.125 15.5 15.5 15.125 15.5 14.6667V11.75C15.5 11.2917 15.125 10.9167 14.6667 10.9167ZM13.8333 8H15.5C15.5 3.85833 12.1417 0.5 8 0.5V2.16667C11.225 2.16667 13.8333 4.775 13.8333 8ZM10.5 8H12.1667C12.1667 5.7 10.3 3.83333 8 3.83333V5.5C9.38333 5.5 10.5 6.61667 10.5 8Z" fill="white"/>
</svg>
