<svg width="17" height="15" viewBox="0 0 17 15" fill="none" xmlns="http://www.w3.org/2000/svg">
<path d="M4.67641 2.66668H4.89663L5.0453 2.5042L6.34538 1.08334H10.6549L11.955 2.5042L12.1037 2.66668H12.3239H14.8335C15.4282 2.66668 15.9168 3.15532 15.9168 3.75001V13.25C15.9168 13.8447 15.4282 14.3333 14.8335 14.3333H2.16683C1.57214 14.3333 1.0835 13.8447 1.0835 13.25V3.75001C1.0835 3.15532 1.57214 2.66668 2.16683 2.66668H4.67641ZM4.04183 8.50001C4.04183 10.9612 6.03902 12.9583 8.50016 12.9583C10.9613 12.9583 12.9585 10.9612 12.9585 8.50001C12.9585 6.03887 10.9613 4.04168 8.50016 4.04168C6.03902 4.04168 4.04183 6.03887 4.04183 8.50001Z" fill="white" stroke="#D32323"/>
</svg>
